inDegrees=yes
name=ik_lifting_orientations
DataType=double
version=3
OpenSimVersion=4.5-2024-01-10-34fd6af
endheader
time	pelvis_tilt	pelvis_list	pelvis_rotation	pelvis_tx	pelvis_ty	pelvis_tz	hip_flexion_r	hip_adduction_r	hip_rotation_r	knee_angle_r	knee_angle_r_beta	ankle_angle_r	subtalar_angle_r	mtp_angle_r	hip_flexion_l	hip_adduction_l	hip_rotation_l	knee_angle_l	knee_angle_l_beta	ankle_angle_l	subtalar_angle_l	mtp_angle_l	lumbar_extension	lumbar_bending	lumbar_rotation	arm_flex_r	arm_add_r	arm_rot_r	elbow_flex_r	pro_sup_r	wrist_flex_r	wrist_dev_r	arm_flex_l	arm_add_l	arm_rot_l	elbow_flex_l	pro_sup_l	wrist_flex_l	wrist_dev_l
0.02	0.00193296747459017	-0.001484193429404795	-90.00398647879024	0	0.9399999998679526	0	45.1243683697943	-13.73025119611788	0	60.33735455810648	1.053085498982166	-6.969914612727552	0	0	45.1243683697943	-13.73025119611788	0	60.33735455810648	1.053085498982166	-6.969914612727552	0	0	-0.004757196585990552	0.0008744810506250007	0.01090373730130333	-0.2373123454871335	-0.05751405683375709	-0.01107364526515213	0.5043449166604523	2.991086858268163	0	0	0	-8.737610278387397	0	87.07119579659715	2.991086858268163	0	0
0.03	-0.003258300393973922	0.008046547391346042	-90.00252552318132	0	0.9399999998679526	0	45.12143801200298	-13.45864600586515	0	60.33106831085711	1.05297578327007	-6.792539134118562	0	0	45.12143801200298	-13.45864600586515	0	60.33106831085711	1.05297578327007	-6.792539134118562	0	0	0.1478965820310461	0.01299802690810285	0.06229886191019862	-0.3564811897622792	-0.0431550846592192	-0.04955914444049708	0.4834948820629516	2.941228445095625	0	0	0	-8.81530617937935	0	87.12001127397501	2.941228445095625	0	0
0.04	-0.002598810433425638	-0.003277751307291612	-90.06040582116636	0	0.9399999998679526	0	45.11632238080215	-13.00987565958407	0	60.32003790678536	1.052783266401193	-6.505272025710672	0	0	45.11632238080215	-13.00987565958407	0	60.32003790678536	1.052783266401193	-6.505272025710672	0	0	0.1879337970753601	0.005562516514287409	0.1208315120797324	-0.3741418163188778	-0.02291874473523938	-0.06972039187331429	0.4382403679027657	2.853558186135191	0	0	0	-8.952526481623284	0	87.20584781762142	2.853558186135191	0	0
0.05	0.006573080874448114	-0.07315832270977216	-90.00091681563323	0	0.9399999998679526	0	45.11066901248396	-12.56238235014607	0	60.30772780681687	1.052568414625493	-6.229290765900045	0	0	45.11066901248396	-12.56238235014607	0	60.30772780681687	1.052568414625493	-6.229290765900045	0	0	0.1670241041343658	-0.0006815859483461398	-0.005544483427002249	-0.6171667695088959	-0.08544123158398714	-0.008295494437030418	0.9085388082741324	2.755348108499101	0	0	0	-9.107521684545524	0	87.30200407033324	2.755348108499101	0	0
0.06	0.001532506234230291	-0.06774214952059264	-90.05926457130153	0	0.9399999998679526	0	45.10837332064919	-12.39488978421478	0	60.30269048977227	1.052480496857598	-6.129011934469099	0	0	45.10837332064919	-12.39488978421478	0	60.30269048977227	1.052480496857598	-6.129011934469099	0	0	0.253256413326468	-0.003113008860092155	0.05948818494203209	-0.4760325266134597	-0.00123811820060375	-0.07458429698284967	0.4267051029458898	2.715037200359601	0	0	0	-9.171555785835338	0	87.34147207958476	2.715037200359601	0	0
0.07000000000000001	0.007841140732113	-0.06044928859041479	-90.06148928715506	0	0.9399999998679526	0	45.10605452486022	-12.23454677057383	0	60.29757632952171	1.052391237922751	-6.034892575634936	0	0	45.10605452486022	-12.23454677057383	0	60.29757632952171	1.052391237922751	-6.034892575634936	0	0	0.3262546134493612	-0.003515048417553257	0.05954268773305747	-0.4827586740315974	-0.007157517103111562	-0.07444530608918867	0.425718069722761	2.67403153461263	0	0	0	-9.23697445470796	0	87.38162038693839	2.67403153461263	0	0
0.08	-0.01070521776952544	-0.03562862217026472	-89.98384301793594	0	0.9399999998679526	0	45.10375284384217	-12.08292440138337	0	60.29247572654775	1.052302215607019	-5.94743870147349	0	0	45.10375284384217	-12.08292440138337	0	60.29247572654775	1.052302215607019	-5.94743870147349	0	0	0.4213865223299542	0.01843106894255414	-0.008679730112576757	-0.7634019604596076	-0.03352662698989226	-0.1640811735931356	0.9005929675925241	2.633060427662834	0	0	0	-9.302601438774637	0	87.42173491897216	2.633060427662834	0	0
0.09	0.0009628653836893515	-0.06490060324239147	-89.99983723787012	0	0.9399999998679526	0	45.10135508731494	-11.93494623652213	0	60.28712919987912	1.052208901113105	-5.864100438807872	0	0	45.10135508731494	-11.93494623652213	0	60.28712919987912	1.052208901113105	-5.864100438807872	0	0	0.4424504245329097	0.005748985085051651	0.06336852883579316	-0.5656556350245396	0.007323241269512192	-0.2660152464558225	0.4330973997999163	2.590006623685482	0	0	0	-9.371929981451984	0	87.46388868873309	2.590006623685482	0	0
0.1	-0.004620639462699771	-0.05136134457449597	-89.9921440124443	0	0.9399999998679526	0	45.09918764837949	-11.80486447598438	0	60.28228309416698	1.052124320612529	-5.791584061343458	0	0	45.09918764837949	-11.80486447598438	0	60.28228309416698	1.052124320612529	-5.791584061343458	0	0	0.5274918443715099	0.01279258381452192	0.02344830626986631	-0.827543939521191	-0.01920625194041042	-0.2798333667736399	0.8776086991281954	2.550939539264186	0	0	0	-9.434986046084422	0	87.50213910937862	2.550939539264186	0	0
0.11	-0.002678777702667062	-0.05496683720881558	-89.99996896207769	0	0.9399999998679526	0	45.09916163983269	-11.80321242739207	0	60.28222489745863	1.052123304888354	-5.790640915786754	0	0	45.09916163983269	-11.80321242739207	0	60.28222489745863	1.052123304888354	-5.790640915786754	0	0	0.57637501769368	0.002160094032578863	0.0008536581285243716	-0.6112412198752389	0.1000735835976888	-0.2984226584648768	0.4059719010934731	2.550473390559127	0	0	0	-9.43573632841478	0	87.50259551299428	2.550473390559127	0	0
0.12	-0.01072305798182852	-0.03727171314115239	-89.99948627345186	0	0.9399999998679526	0	45.09502895786552	-11.57122521481621	0	60.27292680454214	1.051961022552805	-5.664548601320758	0	0	45.09502895786552	-11.57122521481621	0	60.27292680454214	1.051961022552805	-5.664548601320758	0	0	0.6742306550429158	0.01428702093822141	-0.01267577591576892	-0.91903855769924	0.05857517291524265	-0.336959707011862	0.9437959803708692	2.475328029648087	0	0	0	-9.557671389907565	0	87.57617015858578	2.475328029648087	0	0
0.13	-0.006600001743286011	-0.06205338955073589	-90.00079183998703	0	0.9399999998679526	0	45.09284159477213	-11.4603710913839	0	60.26795618444374	1.051874268866222	-5.606520835416287	0	0	45.09284159477213	-11.4603710913839	0	60.26795618444374	1.051874268866222	-5.606520835416287	0	0	0.6469707696634051	6.683716735041214e-05	0.008607029594150148	-0.6211711055509468	0.1550427221694294	-0.3856788761647808	0.4067784977737277	2.435004748163273	0	0	0	-9.623652822785013	0	87.61565069738283	2.435004748163273	0	0
0.14	0.005667505089733396	-0.052215943278566	-90.04840529313719	0	0.9399999998679526	0	45.09058216392891	-11.3517120865105	0	60.26279556058667	1.051784198988459	-5.550700007147308	0	0	45.09058216392891	-11.3517120865105	0	60.26279556058667	1.051784198988459	-5.550700007147308	0	0	0.6997665785997381	0.005084049378145264	0.04733108438912717	-0.8986453237639732	0.1081800438525062	-0.3929405012317332	0.9043173553024157	2.393049808849148	0	0	0	-9.692610231529937	0	87.65672884875697	2.393049808849148	0	0
0.15	-0.0007547028385999954	-0.1271211807558419	-90.05422485293758	0	0.9399999998679526	0	45.08851202364174	-11.25652069452562	0	60.25804691619122	1.051701319508752	-5.502606031089277	0	0	45.08851202364174	-11.25652069452562	0	60.25804691619122	1.051701319508752	-5.502606031089277	0	0	0.6954056740447946	-0.0001078586089160008	0.06137950987946254	-0.7152075241675717	0.1870225609845131	-0.4293116865344466	0.3793492038714939	2.354377527558056	0	0	0	-9.756405791122084	0	87.69459298388004	2.354377527558056	0	0
0.16	-0.0001207957381836829	-0.1194371839935231	-90.11993244066279	0	0.9399999998679526	0	45.08848637867421	-11.2552433033487	0	60.2579884252451	1.05170029864916	-5.501939652405171	0	0	45.08848637867421	-11.2552433033487	0	60.2579884252451	1.05170029864916	-5.501939652405171	0	0	0.6939670292551958	-0.004014508024049084	0.1247393902225172	-0.6748596970194495	0.2221049488864705	-0.4611923773500095	0.3338109182479657	2.353903102160651	0	0	0	-9.757183957739437	0	87.69505749417931	2.353903102160651	0	0
0.17	0.004494491089730542	-0.1571196024589211	-90.13347654202165	0	0.9399999998679526	0	45.08847793905386	-11.25482523134852	0	60.25796910643516	1.051699961472319	-5.501721840364467	0	0	45.08847793905386	-11.25482523134852	0	60.25796910643516	1.051699961472319	-5.501721840364467	0	0	0.7259532658505679	-0.006810604620305676	0.08166327143258328	-0.787932541716972	0.2180968257079834	-0.4134166835273771	0.3255182026550152	2.353746742527642	0	0	0	-9.757440729578921	0	87.69521058605793	2.353746742527642	0	0
0.18	0.003997941557965291	-0.1317100430425722	-90.11755331039171	0	0.9399999998679526	0	45.08846533673224	-11.25419837182204	0	60.25794035451491	1.051699459656644	-5.501394995947712	0	0	45.08846533673224	-11.25419837182204	0	60.25794035451491	1.051699459656644	-5.501394995947712	0	0	0.7576097219050713	-0.0125938536647081	0.08271846824669664	-0.7538260331632192	0.1902266488690457	-0.4171402436629438	0.3083250227616118	2.353513555918849	0	0	0	-9.757823258608239	0	87.69543889926675	2.353513555918849	0	0
0.19	0.00224084616336795	-0.1252169453137562	-90.14480325111261	0	0.9399999998679526	0	45.0884478513257	-11.25332760144221	0	60.25790050610691	1.051698764170723	-5.500940900645872	0	0	45.0884478513257	-11.25332760144221	0	60.25790050610691	1.051698764170723	-5.500940900645872	0	0	0.7576939934257633	-0.007176523825389869	0.1338877316814091	-0.740813457904495	0.2246065201652966	-0.4467921984757244	0.3087877478504057	2.353190143884393	0	0	0	-9.75835361703537	0	87.69575555224989	2.353190143884393	0	0
0.2	0.005295701287115078	-0.1589115321266461	-90.18587474695148	0	0.9399999998679526	0	45.08843931776621	-11.25290545738575	0	60.25788096936201	1.051698423190199	-5.500721091843746	0	0	45.08843931776621	-11.25290545738575	0	60.25788096936201	1.051698423190199	-5.500721091843746	0	0	0.7941079208278871	-0.01267426934911139	0.1254781396919134	-0.8225621494478526	0.2222757806303249	-0.3759917321064832	0.3291470574106801	2.353032017802039	0	0	0	-9.758613314359717	0	87.69591037366523	2.353032017802039	0	0
0.21	0.002429734035345009	-0.1410702130122023	-90.2564160294433	0	0.9399999998679526	0	45.08842802541996	-11.25234744588936	0	60.25785509035014	1.051697971516235	-5.500430586397528	0	0	45.08842802541996	-11.25234744588936	0	60.25785509035014	1.051697971516235	-5.500430586397528	0	0	0.8403656382537588	-0.01689424705581729	0.1241198162190376	-0.8306398486293164	0.2467508726617324	-0.3095698292718407	0.3189273490971497	2.3528226895249	0	0	0	-9.758957222733374	0	87.69611532721628	2.3528226895249	0	0
0.22	0.004121063251443605	-0.1450919912169021	-90.25910701632029	0	0.9399999998679526	0	45.08841793265412	-11.25184585694874	0	60.257832075423	1.051697569829979	-5.500169201823634	0	0	45.08841793265412	-11.25184585694874	0	60.257832075423	1.051697569829979	-5.500169201823634	0	0	0.8691550102688183	-0.02628308779995596	0.08136094552030845	-0.8495513472697024	0.2501037390168439	-0.2778338154681204	0.3100306112804995	2.352635948881006	0	0	0	-9.759263528016364	0	87.6962981651404	2.352635948881006	0	0
0.23	0.003727905168936949	-0.1393666319803676	-90.31348960363934	0	0.9399999998679526	0	45.08840737473863	-11.25132293396507	0	60.25780793066	1.051697148424368	-5.499896868316895	0	0	45.08840737473863	-11.25132293396507	0	60.25780793066	1.051697148424368	-5.499896868316895	0	0	0.8795397269282771	-0.03250797203558438	0.05729786186671838	-0.8589135369338495	0.2664214779586392	-0.2497147854584988	0.311088642665758	2.352440385804041	0	0	0	-9.759584609727561	0	87.69648964114782	2.352440385804041	0	0
0.24	0.00276992551989414	-0.127311099513062	-90.30754660521298	0	0.9399999998679526	0	45.0883951060523	-11.25071279730053	0	60.25777997593822	1.051696660522431	-5.49957890432051	0	0	45.0883951060523	-11.25071279730053	0	60.25777997593822	1.051696660522431	-5.49957890432051	0	0	0.8840483256972896	-0.03470895511500205	0.05148563282872842	-0.8298227523878551	0.2859572953869598	-0.2646218980305215	0.2981327590388262	2.352213444572563	0	0	0	-9.75995677091214	0	87.69671183949417	2.352213444572563	0	0
